<?xml version="1.0" encoding="utf-8"?>
<!-- Generator: Adobe Illustrator 19.1.0, SVG Export Plug-In . SVG Version: 6.00 Build 0)  -->
<!DOCTYPE svg PUBLIC "-//W3C//DTD SVG 1.1//EN" "http://www.w3.org/Graphics/SVG/1.1/DTD/svg11.dtd">
<svg version="1.1" id="Layer_1" xmlns="http://www.w3.org/2000/svg" xmlns:xlink="http://www.w3.org/1999/xlink" x="0px" y="0px"
	 viewBox="0 0 189.5 60.8" style="enable-background:new 0 0 189.5 60.8;" xml:space="preserve">
<style type="text/css">
	.st0{fill:#243A76;}
	.st1{fill:none;stroke:#38499F;stroke-width:0.1363;stroke-miterlimit:10;}
	.st2{fill:#F5CB12;}
	.st3{fill:#414042;}
	.st4{font-family:'Avenir-Roman';}
	.st5{font-size:11.1502px;}
</style>
<g>
	<g>
		<path class="st0" d="M0,31.4c0,0.5,0.4,0.8,0.8,0.8c2.4,0,9.1,0.1,9.9-0.3c0.9-0.5,2-1.5,2-2.8s0.1-5.5-0.2-5.8
			c-0.3-0.4-0.2-1.2-3-0.9c-1.2-0.1-3.1-0.5-3.6-0.5C5.9,21.3,5.8,4,5.8,4s0.5-0.7-1.3-0.7C3.1,3.4,2.1,3.5,2.1,3.5S0.9,3.1,0.9,5.8
			c0,1.6-0.2,11.3-0.2,11.3H0.2L0,31.4z"/>
		<path class="st0" d="M26.2,5.8c1.1,3.5-2.3,6.2-6.3,6.5c-3.1-0.6-5.7-2.4-5.7-6.3s1.7-6.3,5.6-5.9C23.9,0.5,25.3,2.8,26.2,5.8z"/>
		<path class="st0" d="M17,16.7c0,0-0.1-1.2,1-1.3c1-0.1,6.1,0.1,6.1,0.1s0.3,0.3,0.3,1c0,0.6,0.4,14.1,0.1,14.7
			c-0.3,0.6-1.2,1.8-1.8,1.9c-0.7,0.1-3.2,0.2-3.8,0.6c-0.7,0.2-1.7,0.5-2.1-1.8c0-0.7,0.2-5.2,0.3-9C17.1,19.7,17.1,17.3,17,16.7z"
			/>
		<path class="st0" d="M28.8,3.9c0,0,0-1.6,1.5-1.8s11.3-0.7,12-0.3c0.7,0.4,2.3,1,2.5,4.2c0.1,1.8,0.5,3.5,0.1,4
			c-0.3,0.5-1.3,1-3,1c-1.2,0.1-4,0.2-4.1,0.4c-0.1,0.2-1,1.2,0.5,1.9c1,0.3,2.4,0.3,3.4,2c0.1,0.8,0.7,5.9,0.3,6.6
			c-0.4,0.7-1.7,1.6-2.7,1.4c-0.8,0.1-2.2-0.6-2.2,2.1c0.1,1.2,0.4,5.8,0.1,6.3s-1.4,2-4,2.2c-1.4,0-3.4,0-3.4,0s-1.6,0.3-1.4-2.7
			C28.6,29,28.8,3.9,28.8,3.9z"/>
		<path class="st0" d="M49.5,2.4c0,0-1.5-0.5-1.6,2.3c0,1.2-0.1,2.3-0.4,2.7c-0.3,0.3-0.3,2.8-0.1,3.4c0,0.8-1,7-0.8,9.2
			c0.1,2-0.1,10.7-0.1,10.7s-0.3,1,1.2,1s10.3,0,10.3,0s1.4,0.4,1.4-1.4c0-1.4-0.1-3.8-0.1-3.8s0.1-1.6-1.6-1.6
			c-1.2,0.1-3.5-0.3-4.1-0.1c-0.7-0.5-1.8-1.3-1.3-3.9c0.5-0.7,1.5-0.6,2-0.7c0.5-0.1,1.8-0.4,2.2-0.7c0.5-0.3,0.5-3.7,0.5-3.7
			s0.3-1-1.2-1.1c-1.2,0.1-2.7,0.3-2.7-0.9s-0.2-3.1-0.1-3.3c0.1-0.2,0.3-0.9,1.4-0.8c1.1,0.1,4.9,0.1,5.5-0.1
			c0.4-0.8,0.9-4.3,0.7-5.3c-0.1-1-0.7-1.9-3.1-1.8C55.3,2.4,49.5,2.4,49.5,2.4z"/>
		<path class="st0" d="M118.7,7.3c0,2.1,0.2,4.2-0.8,5c-0.9,0.7-3,0.3-4.9,0.5c-3.5,0.4-6.3-3.3-5.7-6.3c0.7-3.4,2.5-5.8,4.8-5.6
			C116,1.2,118.7,3.3,118.7,7.3z"/>
		<path class="st0" d="M109.9,17.2c0,0-0.1-2,0.9-2c1,0,5-0.1,5-0.1s1.5-0.1,1.1,1.8c0.1,1.2,0.2,14.2,0.2,14.2s0.1,1.2-1.5,1.4
			c-1,0.3-4.3,1-4.3,1s-1.5,0.3-1.7-1.6C109.7,30.5,109.9,17.2,109.9,17.2z"/>
		<path class="st0" d="M125.8,2.7c0,0,1.4-0.6,1.8-0.3c0.3-0.1,1.3-0.3,1.3,0.7c0.5,0.7,0.7,0.5,0.7,1.9c0.2,1.4,3.2,11.7,3.2,11.7
			s1,1.9,1.1-0.1c0.1-1.4,0.1-2.5,0-2.8c-0.1-0.3-0.1-1.5-0.1-2.2c0-0.7-0.3-6.1-0.1-6.6c0.2-0.5-0.1-1.5,1.4-1.6
			c1.4-0.1,4.2,0,4.5,0c0.3,0,1.2-0.1,1.4,0.3c0.1,0.7,0.1,26,0.1,26s0.1,1.4-0.7,1.5c-0.8,0.1-6.5,0.3-6.9,0.3s-0.7,0.2-1.4-2
			s-2-5.2-2-5.7s0.1-2.1-1-2.2c-0.6,0.1-0.7,0.3-0.4,1.2c0.1,0.8,0.1,7.4,0.1,7.4s0,1.3-1.4,1.2c-1-0.1-5.2-0.1-5.2-0.1
			s0.1-26.8,0.2-27.1c0.1-0.3,0.1-1.2,0.7-1.2S125.7,2.9,125.8,2.7z"/>
		<path class="st0" d="M146.1,5c0,0,0.2-2.1,1.6-2.1s14.6,0.1,14.9,0.1c0.3,0.1,1.8-0.7,1.8,1.6s0.3,4.3,0.1,5.1s0.1,1.3-1.9,1.3
			c-2,0-4.7-0.3-5,0.1c-0.3,0.3-0.8,0.3-0.7,1.9s1,17,1,17s0.1,1.6-1.5,1.4c-1,0.1-4.8,0.3-5.1,0.1c-0.3-0.2-1-0.1-1.1-2
			c0.1-1.4,0.1-12.8,0.3-13.4c0.1-0.5,0.8-2.9,0.7-3.3c-0.1-0.5-0.3-2.2-1.8-2.4c-1,0.1-2.4,0.5-2.7,0.3s-1.2-0.8-1-2.5
			C145.9,6.4,146.1,5,146.1,5z"/>
		<path class="st0" d="M169,21.5c0,0-1.4-0.4-1.4,1.6s-0.5,8,5.2,8.5c5.7,0.5,7.7-1.4,8.1-2.3c0,0,0.3-1,1.1-1.6
			c0.8-0.7,2.5-3.5,0.3-9.1c-0.3,0-0.4-0.9-0.6-1.6c-0.4-0.5-3.2-3-5.5-4.4c-0.5-1-1.2-3.2,0.5-3.6s2.1,1.6,2,2.2
			c0.7,0.5,4.9-0.6,5.3-1c0.4-0.3,0.9-1.8,0.5-2.5c-0.3-0.7-2-6.6-8-5.5s-6.9,4-8.1,8.7c-0.2,1.2,0.7,5.5,4.2,7.8
			c1,0.7,3.3,2.3,3.5,2.7c0.2,0.4,0.4,3.4-1,3.4s-1.6-1.4-1.8-2.2c-0.5-0.6-1-1.3-1.8-1.3S169,21.5,169,21.5z"/>
		<path class="st1" d="M176.5,2.2c-6,1.1-7,4-8,8.2c-0.2,1.2,0.6,5.9,4.2,8.3"/>
		<path class="st2" d="M24.9,5.6c0,2.9-2.2,5-5.2,5s-4.4-1.6-4.4-4.6s1.5-5.5,4.4-5.5S24.9,2.7,24.9,5.6z"/>
		<path class="st2" d="M117.2,6.2c0.8,3.5-1.9,5.7-4.2,5.7s-5.7-2.3-4.6-5.5c0.5-2.7,1.9-4.3,4.3-4.3S116.6,3.9,117.2,6.2z"/>
		<path class="st0" d="M103.5,27.2c0-0.7-1.8-2.2-2.2-2.9c0.2-1.2-1.7-3-2.2-4c7.9-6.3,5.5-12.7,4.5-14.9c-2.5-5-11.7-2.7-13.4-2.2
			C87.2,4,87,6.7,87,6.7c0.3,0.7-0.1,7.4-0.4,8.5c-0.3,0.7-0.3,12.1-0.5,14.5c-0.2,2.3,0.9,1.9,1.2,2.2s3.8-0.1,4.7-0.1
			c1,0.1,1-1.3,1-1.6s0.1-2.7-0.1-4.6c0.3-2.1,0.7-1.4,1.2-1.2c0.3,0.3,2.4,5.7,3,6.7c0.7,1,2.2,0.6,2.9,0.3c0.5-0.3,2.3-0.7,3.6-1
			C106,29.9,103.9,27.9,103.5,27.2z M95.1,15.3c-1.2,0.5-1.5-1-1.5-1s0.1-2.1,0.5-3.7c0.7-2.2,2-1.4,2.7-0.8
			C98.9,13.1,96.3,14.8,95.1,15.3z"/>
		<path class="st0" d="M77.8,2.9c-3.2-2.1-11.2,0.5-12.1,0.8S65,5.4,65,5.4s-0.1,7.3-0.3,8.2c-0.4,0.6-0.1,15.5-0.1,17.1
			c-0.1,1.6,1.7,0.9,2.1,0.7c0.6-0.3,2.9-0.5,4-0.7c1.4-0.1,1.2-1.4,1.2-1.4s-0.2-5.5-0.3-6.2c-0.4-1,0.2-1.8,1-2.2
			c6-1.7,9.9-4.6,10.3-8.4C83.2,5.9,81,5,77.8,2.9z M74.1,13.9c-0.9,0.3-2.3,1.5-2.9,0c0-1.2-0.1-2.9-0.1-2.9s0.1-1.1,1.2-1.2
			c1.1-0.1,2.5-0.4,3.3,1C76.1,12.1,75.6,13.3,74.1,13.9z"/>
	</g>
	<text transform="matrix(1.0656 0 0 1 4.882812e-04 56.3843)" class="st3 st4 st5">CHILDCARE &amp; LEARNING CENTER</text>
</g>
</svg>
